Coordinates
version=1
nRows=49
nColumns=12
inDegrees=yes

Units are S.I. units (second, meters, Newtons, ...)
Angles are in degrees

endheader
time	SC_y	SC_z	SC_x	AC_y	AC_z	AC_x	GH_y	GH_z	GH_yy	EL_x	PS_y
       0.0              -58.85          9.512          61.82          36.26         -1.383         -14.57          125.7          82.41          29.85          104.4          157.4
   0.04439              -58.85          9.515          61.83          36.26         -1.384         -14.56          125.7          82.41          29.85          104.3          157.4
   0.08879              -58.85          9.518          61.83          36.26         -1.385         -14.56          125.6           82.4          29.86          104.3          157.4
    0.1332              -58.85          9.521          61.83          36.26         -1.386         -14.55          125.6           82.4          29.87          104.3          157.4
    0.1776              -58.85          9.525          61.84          36.27         -1.387         -14.55          125.5           82.4          29.87          104.3          157.3
     0.222              -58.84          9.528          61.84          36.27         -1.389         -14.54          125.5           82.4          29.88          104.3          157.3
    0.2664              -58.84          9.532          61.84          36.27          -1.39         -14.53          125.4           82.4          29.89          104.3          157.3
    0.3108              -58.84          9.536          61.85          36.27         -1.392         -14.53          125.4          82.39           29.9          104.2          157.3
    0.3552              -58.84           9.54          61.85          36.27         -1.393         -14.52          125.3          82.39           29.9          104.2          157.3
    0.3996              -58.84          9.545          61.86          36.27         -1.395         -14.51          125.2          82.39          29.91          104.2          157.3
    0.4439              -58.84           9.55          61.86          36.28         -1.397          -14.5          125.2          82.39          29.92          104.2          157.3
    0.4883              -58.84          9.555          61.87          36.28         -1.399         -14.49          125.1          82.38          29.93          104.1          157.3
    0.5327              -58.83          9.561          61.87          36.28         -1.401         -14.48          125.0          82.38          29.94          104.1          157.3
    0.5771              -58.83          9.568          61.88          36.28         -1.404         -14.47          124.9          82.38          29.96          104.1          157.3
    0.6215              -58.83          9.574          61.89          36.29         -1.406         -14.46          124.8          82.37          29.97          104.0          157.3
    0.6659              -58.83          9.582          61.89          36.29         -1.409         -14.45          124.7          82.37          29.98          104.0          157.3
    0.7103              -58.82           9.59           61.9          36.29         -1.412         -14.43          124.6          82.36           30.0          104.0          157.3
    0.7547              -58.82          9.598          61.91           36.3         -1.416         -14.42          124.4          82.36          30.02          103.9          157.2
    0.7991              -58.82          9.608          61.92           36.3         -1.419          -14.4          124.3          82.35          30.04          103.9          157.2
    0.8435              -58.81          9.618          61.93          36.31         -1.423         -14.38          124.2          82.35          30.06          103.8          157.2
    0.8879              -58.81           9.63          61.94          36.31         -1.427         -14.36          124.0          82.34          30.08          103.8          157.2
    0.9323               -58.8          9.642          61.96          36.32         -1.432         -14.34          123.8          82.34           30.1          103.7          157.2
    0.9767               -58.8          9.656          61.97          36.32         -1.438         -14.31          123.6          82.33          30.13          103.6          157.2
     1.021              -58.79          9.672          61.99          36.33         -1.443         -14.28          123.4          82.32          30.16          103.5          157.1
     1.065              -58.79          9.689          62.01          36.34          -1.45         -14.25          123.1          82.31          30.19          103.5          157.1
      1.11              -58.78          9.708          62.03          36.35         -1.457         -14.22          122.8           82.3          30.23          103.4          157.1
     1.154              -58.77          9.729          62.05          36.36         -1.465         -14.18          122.5          82.29          30.27          103.2          157.1
     1.199              -58.76          9.754          62.07          36.37         -1.475         -14.14          122.2          82.28          30.32          103.1          157.0
     1.243              -58.75          9.781           62.1          36.38         -1.485         -14.09          121.8          82.26          30.38          103.0          157.0
     1.287              -58.74          9.812          62.13          36.39         -1.497         -14.03          121.3          82.24          30.44          102.8          156.9
     1.332              -58.73          9.847          62.17          36.41          -1.51         -13.97          120.8          82.22           30.5          102.6          156.9
     1.376              -58.71          9.888          62.21          36.43         -1.526          -13.9          120.2           82.2          30.58          102.4          156.8
     1.421               -58.7          9.934          62.26          36.45         -1.543         -13.81          119.5          82.18          30.68          102.2          156.8
     1.465              -58.68          9.989          62.32          36.47         -1.564         -13.72          118.7          82.15          30.78          101.9          156.7
     1.509              -58.65          10.05          62.38           36.5         -1.588          -13.6          117.7          82.11          30.91          101.6          156.6
     1.554              -58.63          10.13          62.46          36.53         -1.617         -13.47          116.6          82.07          31.05          101.2          156.5
     1.598              -58.59          10.22          62.55          36.57         -1.651         -13.31          115.3          82.02          31.23          100.7          156.4
     1.643              -58.55          10.32          62.66          36.62         -1.691         -13.12          113.7          81.96          31.44          100.2          156.2
     1.687              -58.51          10.45           62.8          36.68         -1.741         -12.89          111.8          81.89          31.69          99.54          156.0
     1.731              -58.45          10.61          62.96          36.75         -1.801          -12.6          109.5          81.81           32.0          98.73          155.8
     1.776              -58.38          10.81          63.16          36.84         -1.875         -12.26          106.6           81.7          32.38          97.73          155.5
      1.82              -58.29          11.05          63.42          36.94         -1.967         -11.82          103.0          81.57          32.86          96.48          155.2
     1.865              -58.18          11.35          63.73          37.08         -2.084         -11.27           98.5           81.4          33.46          94.91          154.8
     1.909              -58.04          11.74          64.14          37.25         -2.232         -10.58          92.75          81.19          34.22          92.91          154.2
     1.953              -57.85          12.24          64.65          37.48         -2.421         -9.687          85.39          80.92           35.2          90.36          153.5
     1.998              -57.62          12.88          65.32          37.76         -2.664         -8.544          75.94          80.57          36.45          87.08          152.6
     2.042              -57.32           13.7          66.16          38.13         -2.975         -7.084          63.88          80.12          38.05          82.89          151.5
     2.087              -56.95          14.72          67.23          38.58         -3.366         -5.248          48.71          79.56          40.06          77.63          150.0
     2.131              -56.49          15.97          68.53          39.14         -3.842          -3.01          30.23          78.88          42.52          71.21          148.3
